# xmcd
#
# Track frame offsets:
#	150
#	6213
#	24130
#	49164
#	72306
#	91646
#	111977
#	133320
#	149905
#	169646
#	186875
#	206650
#	224361
#	243495
#
# Disc length: 3536 seconds
#
# Revision: 1
# Processed by: cddbd v1.5.2PL0 Copyright (c) Steve Scherf et al.
# Submitted via: audiograbber 1.83.01
#
DISCID=cf0dce0e
DTITLE=Mixed Pickles - Auf Die Lange Bank Geschoben
DYEAR=1900
DGENRE=
TTITLE0=Intro
TTITLE1=Supermann
TTITLE2=Pisa
TTITLE3=Fels In Der Brandung
TTITLE4=Bleib Doch
TTITLE5=5 Vor 12
TTITLE6=Kein Wiegenlied
TTITLE7=Frost
TTITLE8=Horizont
TTITLE9=Der Arsch Bleibt Immer Hinten
TTITLE10=Auf Die Lange Bank Geschoben
TTITLE11=Ich Mag Dich Nicht
TTITLE12=Regenmann
TTITLE13=Mixed Pickles - Blues
EXTD=
EXTT0=
EXTT1=
EXTT2=
EXTT3=
EXTT4=
EXTT5=
EXTT6=
EXTT7=
EXTT8=
EXTT9=
EXTT10=
EXTT11=
EXTT12=
EXTT13=
PLAYORDER=
